  0
SECTION
  2
HEADER
  9
$ACADVER
  1
AC1009
  9
$INSUNITS
 70
     1
  0
ENDSEC
  0
SECTION
  2
TABLES
  0
TABLE
  2
LAYER
 70
     8
  0
LAYER
  2
0
 62
     7
 70
0
  6
CONTINUOUS
  0
LAYER
  2
1
 62
     1
 70
0
  6
CONTINUOUS
  0
LAYER
  2
2
 62
     2
 70
0
  6
CONTINUOUS
  0
LAYER
  2
3
 62
     3
 70
0
  6
CONTINUOUS
  0
LAYER
  2
4
 62
     4
 70
0
  6
CONTINUOUS
  0
LAYER
  2
5
 62
     5
 70
0
  6
CONTINUOUS
  0
LAYER
  2
6
 62
     6
 70
0
  6
CONTINUOUS
  0
LAYER
  2
7
 62
     7
 70
0
  6
CONTINUOUS
  0
ENDTAB
  0
TABLE
  2
STYLE
 70
     1
  0
STYLE
 70
     0
  2
STANDARD
  3
TXT
 40
0.00
 41
1.00
 42
1.00
 50
0.00
 71
     0
  0
ENDTAB
  0
ENDSEC
  0
SECTION
  2
BLOCKS
  0
BLOCK
  8
0
  2
EPAD
 70
0
 10
0.0
 20
0.0
  0
POLYLINE
  8
0
 66
1
 70
1
 40
0.5
 41
0.5
  0
VERTEX
  8
0
 10
-0.25
 20
0.0
 42
1.0
  0
VERTEX
  8
0
 10
0.25
 20
0.0
 42
1.0
  0
SEQEND
  8
0
  0
ENDBLK
  8
0
  0
BLOCK
  8
0
  2
RPAD
 70
0
 10
0.0
 20
0.0
  0
TRACE
  8
0
 10
-0.5
 20
-0.5
 11
-0.5
 21
0.5
 12
0.5
 22
-0.5
 13
0.5
 23
0.5
  0
ENDBLK
  8
0
  0
ENDSEC
0
SECTION
2
ENTITIES
0
POLYLINE
8
0
66
1
40
0.040000
41
0.040000
0
VERTEX
8
0
10
-1.203543
20
0.021240
0
VERTEX
8
0
10
-1.203543
20
-0.083799
0
VERTEX
8
0
10
-1.233543
20
-0.113799
0
VERTEX
8
0
10
-1.276969
20
-0.113799
0
SEQEND
8
0
0
POLYLINE
8
0
66
1
40
0.040000
41
0.040000
0
VERTEX
8
0
10
-1.203543
20
0.021240
0
VERTEX
8
0
10
-1.128543
20
0.021240
0
VERTEX
8
0
10
-1.028543
20
0.121240
0
SEQEND
8
0
0
POLYLINE
8
0
66
1
40
0.040000
41
0.040000
0
VERTEX
8
0
10
-0.878543
20
-0.478760
0
VERTEX
8
0
10
-1.003543
20
-0.353760
0
VERTEX
8
0
10
-1.117008
20
-0.353760
0
VERTEX
8
0
10
-1.276969
20
-0.193799
0
SEQEND
8
0
0
POLYLINE
8
0
66
1
40
0.040000
41
0.040000
0
VERTEX
8
0
10
-0.878543
20
-0.478760
0
VERTEX
8
0
10
-0.878543
20
-0.678760
0
SEQEND
8
0
0
POLYLINE
8
0
66
1
40
0.040000
41
0.040000
0
VERTEX
8
0
10
-1.276969
20
-0.033799
0
VERTEX
8
0
10
-1.323543
20
-0.033799
0
VERTEX
8
0
10
-1.353543
20
-0.063799
0
VERTEX
8
0
10
-1.353543
20
-0.578760
0
VERTEX
8
0
10
-1.376969
20
-0.602185
0
VERTEX
8
0
10
-1.376969
20
-0.925610
0
SEQEND
8
0
0
POLYLINE
8
0
66
1
40
0.040000
41
0.040000
0
VERTEX
8
0
10
-0.797441
20
0.644075
0
VERTEX
8
0
10
-0.953543
20
0.487972
0
VERTEX
8
0
10
-0.953543
20
-0.203760
0
VERTEX
8
0
10
-0.883543
20
-0.203760
0
VERTEX
8
0
10
-0.878543
20
-0.208760
0
SEQEND
8
0
0
POLYLINE
8
0
66
1
40
0.040000
41
0.040000
0
VERTEX
8
0
10
-0.028543
20
-0.208760
0
VERTEX
8
0
10
-0.173543
20
-0.353760
0
VERTEX
8
0
10
-0.353543
20
-0.353760
0
VERTEX
8
0
10
-0.478543
20
-0.478760
0
SEQEND
8
0
0
POLYLINE
8
0
66
1
40
0.040000
41
0.040000
0
VERTEX
8
0
10
0.771457
20
-0.328760
0
VERTEX
8
0
10
0.896457
20
-0.203760
0
VERTEX
8
0
10
1.421457
20
-0.203760
0
VERTEX
8
0
10
1.471457
20
-0.253760
0
VERTEX
8
0
10
1.471457
20
-0.678760
0
SEQEND
8
0
0
POLYLINE
8
0
66
1
40
0.040000
41
0.040000
0
VERTEX
8
0
10
-0.797441
20
0.644075
0
VERTEX
8
0
10
-0.797441
20
0.796240
0
VERTEX
8
0
10
-0.778543
20
0.815138
0
VERTEX
8
0
10
-0.778543
20
1.021240
0
VERTEX
8
0
10
-0.778543
20
1.171240
0
SEQEND
8
0
0
POLYLINE
8
0
66
1
40
0.040000
41
0.040000
0
VERTEX
8
0
10
-1.276969
20
-0.689390
0
VERTEX
8
0
10
-1.276969
20
-0.925610
0
SEQEND
8
0
0
POLYLINE
8
0
66
1
40
0.040000
41
0.040000
0
VERTEX
8
0
10
-0.778543
20
-0.678760
0
VERTEX
8
0
10
-0.778543
20
-0.128760
0
VERTEX
8
0
10
-0.878543
20
-0.128760
0
SEQEND
8
0
0
POLYLINE
8
0
66
1
40
0.040000
41
0.040000
0
VERTEX
8
0
10
-0.628543
20
0.371240
0
VERTEX
8
0
10
-0.878543
20
0.121240
0
VERTEX
8
0
10
-0.878543
20
-0.048760
0
SEQEND
8
0
0
POLYLINE
8
0
66
1
40
0.040000
41
0.040000
0
VERTEX
8
0
10
-0.628543
20
0.371240
0
VERTEX
8
0
10
-0.628543
20
0.621240
0
SEQEND
8
0
0
POLYLINE
8
0
66
1
40
0.040000
41
0.040000
0
VERTEX
8
0
10
-0.228543
20
0.271240
0
VERTEX
8
0
10
-0.228543
20
-0.078760
0
VERTEX
8
0
10
-0.278543
20
-0.128760
0
VERTEX
8
0
10
-0.428543
20
-0.128760
0
SEQEND
8
0
0
POLYLINE
8
0
66
1
40
0.040000
41
0.040000
0
VERTEX
8
0
10
0.571457
20
0.396240
0
VERTEX
8
0
10
0.571457
20
0.271240
0
VERTEX
8
0
10
0.471457
20
0.271240
0
SEQEND
8
0
0
POLYLINE
8
0
66
1
40
0.040000
41
0.040000
0
VERTEX
8
0
10
0.571457
20
0.396240
0
VERTEX
8
0
10
0.596457
20
0.396240
0
VERTEX
8
0
10
0.596457
20
0.421240
0
VERTEX
8
0
10
0.671457
20
0.421240
0
SEQEND
8
0
0
POLYLINE
8
0
66
1
40
0.040000
41
0.040000
0
VERTEX
8
0
10
-0.078543
20
1.121240
0
VERTEX
8
0
10
-0.153543
20
1.196240
0
VERTEX
8
0
10
-0.528543
20
1.196240
0
VERTEX
8
0
10
-0.578543
20
1.146240
0
VERTEX
8
0
10
-0.578543
20
0.846240
0
VERTEX
8
0
10
-0.528543
20
0.796240
0
VERTEX
8
0
10
-0.528543
20
0.621240
0
SEQEND
8
0
0
POLYLINE
8
0
66
1
40
0.040000
41
0.040000
0
VERTEX
8
0
10
-0.078543
20
1.121240
0
VERTEX
8
0
10
0.071457
20
1.121240
0
SEQEND
8
0
0
POLYLINE
8
0
66
1
40
0.040000
41
0.040000
0
VERTEX
8
0
10
1.268307
20
-0.768130
0
VERTEX
8
0
10
1.471457
20
-0.971280
0
VERTEX
8
0
10
1.471457
20
-1.078760
0
SEQEND
8
0
0
POLYLINE
8
0
66
1
40
0.040000
41
0.040000
0
VERTEX
8
0
10
-1.328543
20
1.121240
0
VERTEX
8
0
10
-1.328543
20
0.946240
0
VERTEX
8
0
10
-1.318701
20
0.936398
0
VERTEX
8
0
10
-1.318701
20
0.843287
0
SEQEND
8
0
0
POLYLINE
8
0
66
1
40
0.040000
41
0.040000
0
VERTEX
8
0
10
-1.318701
20
0.643287
0
VERTEX
8
0
10
-1.228543
20
0.643287
0
VERTEX
8
0
10
-1.227756
20
0.644075
0
VERTEX
8
0
10
-1.097441
20
0.644075
0
SEQEND
8
0
0
POLYLINE
8
0
66
1
40
0.040000
41
0.040000
0
VERTEX
8
0
10
0.312795
20
-0.925610
0
VERTEX
8
0
10
0.312795
20
-1.003760
0
VERTEX
8
0
10
0.362795
20
-1.053760
0
VERTEX
8
0
10
0.667717
20
-1.053760
0
VERTEX
8
0
10
0.795866
20
-0.925610
0
SEQEND
8
0
0
POLYLINE
8
0
66
1
40
0.040000
41
0.040000
0
VERTEX
8
0
10
0.992866
20
-0.925610
0
VERTEX
8
0
10
0.992866
20
-0.810500
0
VERTEX
8
0
10
1.307677
20
-0.495689
0
SEQEND
8
0
0
POLYLINE
8
0
66
1
40
0.040000
41
0.040000
0
VERTEX
8
0
10
-1.131543
20
1.121240
0
VERTEX
8
0
10
-1.131543
20
0.796240
0
VERTEX
8
0
10
-1.184496
20
0.743287
0
VERTEX
8
0
10
-1.318701
20
0.743287
0
SEQEND
8
0
0
POLYLINE
8
0
66
1
40
0.040000
41
0.040000
0
VERTEX
8
0
10
-0.553543
20
-0.978760
0
VERTEX
8
0
10
-0.333906
20
-0.978760
0
VERTEX
8
0
10
-0.229575
20
-0.874429
0
SEQEND
8
0
0
POLYLINE
8
0
66
1
40
0.040000
41
0.040000
0
VERTEX
8
0
10
-1.176969
20
-0.925610
0
VERTEX
8
0
10
-1.048819
20
-1.053760
0
VERTEX
8
0
10
-0.603543
20
-1.053760
0
VERTEX
8
0
10
-0.553543
20
-1.003760
0
VERTEX
8
0
10
-0.553543
20
-0.978760
0
SEQEND
8
0
0
POLYLINE
8
0
66
1
40
0.040000
41
0.040000
0
VERTEX
8
0
10
-1.316339
20
0.398161
0
VERTEX
8
0
10
-1.203543
20
0.398161
0
VERTEX
8
0
10
-1.176622
20
0.371240
0
VERTEX
8
0
10
-1.028543
20
0.371240
0
SEQEND
8
0
0
POLYLINE
8
0
66
1
40
0.040000
41
0.040000
0
VERTEX
8
0
10
-1.318701
20
0.743287
0
VERTEX
8
0
10
-1.403543
20
0.743287
0
VERTEX
8
0
10
-1.403543
20
0.583445
0
VERTEX
8
0
10
-1.316339
20
0.496240
0
VERTEX
8
0
10
-1.316339
20
0.398161
0
SEQEND
8
0
0
POLYLINE
8
0
66
1
40
0.040000
41
0.040000
0
VERTEX
8
0
10
-0.428543
20
-0.208760
0
VERTEX
8
0
10
-0.433543
20
-0.203760
0
VERTEX
8
0
10
-0.553543
20
-0.203760
0
SEQEND
8
0
0
POLYLINE
8
0
66
1
40
0.040000
41
0.040000
0
VERTEX
8
0
10
-1.176969
20
-0.925610
0
VERTEX
8
0
10
-1.176969
20
-0.689390
0
SEQEND
8
0
0
POLYLINE
8
0
66
1
40
0.040000
41
0.040000
0
VERTEX
8
0
10
0.992866
20
-0.925610
0
VERTEX
8
0
10
1.125787
20
-0.925610
0
VERTEX
8
0
10
1.268307
20
-1.068130
0
SEQEND
8
0
0
POLYLINE
8
0
66
1
40
0.040000
41
0.040000
0
VERTEX
8
0
10
-0.628543
20
0.121240
0
VERTEX
8
0
10
-0.628543
20
0.271240
0
SEQEND
8
0
0
POLYLINE
8
0
66
1
40
0.040000
41
0.040000
0
VERTEX
8
0
10
-0.628543
20
0.121240
0
VERTEX
8
0
10
-0.628543
20
-0.128760
0
VERTEX
8
0
10
-0.553543
20
-0.203760
0
SEQEND
8
0
0
POLYLINE
8
0
66
1
40
0.040000
41
0.040000
0
VERTEX
8
0
10
-0.678543
20
1.096240
0
VERTEX
8
0
10
-0.678543
20
1.021240
0
SEQEND
8
0
0
POLYLINE
8
0
66
1
40
0.040000
41
0.040000
0
VERTEX
8
0
10
-0.678543
20
1.106240
0
VERTEX
8
0
10
-0.678543
20
1.096240
0
SEQEND
8
0
0
POLYLINE
8
0
66
1
40
0.040000
41
0.040000
0
VERTEX
8
0
10
-0.678543
20
1.171240
0
VERTEX
8
0
10
-0.678543
20
1.106240
0
SEQEND
8
0
0
POLYLINE
8
0
66
1
40
0.040000
41
0.040000
0
VERTEX
8
0
10
0.771457
20
-0.328760
0
VERTEX
8
0
10
-0.028543
20
-0.328760
0
VERTEX
8
0
10
-0.028543
20
-0.208760
0
SEQEND
8
0
0
POLYLINE
8
0
66
1
40
0.040000
41
0.040000
0
VERTEX
8
0
10
0.771457
20
0.071240
0
VERTEX
8
0
10
0.621457
20
0.071240
0
VERTEX
8
0
10
0.621457
20
-0.128760
0
VERTEX
8
0
10
-0.028543
20
-0.128760
0
SEQEND
8
0
0
POLYLINE
8
0
66
1
40
0.040000
41
0.040000
0
VERTEX
8
0
10
0.471457
20
1.121240
0
VERTEX
8
0
10
0.771457
20
1.121240
0
VERTEX
8
0
10
0.771457
20
0.071240
0
SEQEND
8
0
0
POLYLINE
8
0
66
1
40
0.040000
41
0.040000
0
VERTEX
8
0
10
-0.028543
20
-0.048760
0
VERTEX
8
0
10
0.071457
20
-0.048760
0
VERTEX
8
0
10
0.071457
20
0.271240
0
SEQEND
8
0
0
POLYLINE
8
0
66
1
40
0.040000
41
0.040000
0
VERTEX
8
0
10
0.571457
20
0.396240
0
VERTEX
8
0
10
0.571457
20
0.771240
0
VERTEX
8
0
10
0.471457
20
0.771240
0
SEQEND
8
0
0
POLYLINE
8
0
66
1
40
0.040000
41
0.040000
0
VERTEX
8
0
10
-0.478543
20
1.121240
0
VERTEX
8
0
10
-0.478543
20
1.021240
0
VERTEX
8
0
10
-0.228543
20
1.021240
0
SEQEND
8
0
0
POLYLINE
8
0
66
1
40
0.040000
41
0.040000
0
VERTEX
8
0
10
-0.228543
20
0.421240
0
VERTEX
8
0
10
-0.228543
20
0.271240
0
SEQEND
8
0
0
POLYLINE
8
0
66
1
40
0.040000
41
0.040000
0
VERTEX
8
0
10
0.071457
20
0.771240
0
VERTEX
8
0
10
-0.078543
20
0.771240
0
VERTEX
8
0
10
-0.078543
20
0.571240
0
VERTEX
8
0
10
-0.328543
20
0.571240
0
VERTEX
8
0
10
-0.328543
20
-0.048760
0
VERTEX
8
0
10
-0.428543
20
-0.048760
0
SEQEND
8
0
0
POLYLINE
8
0
66
1
40
0.040000
41
0.040000
0
VERTEX
8
0
10
-1.428543
20
-0.478760
0
VERTEX
8
0
10
-1.428543
20
-0.603760
0
VERTEX
8
0
10
-1.453543
20
-0.628760
0
VERTEX
8
0
10
-1.453543
20
-1.053760
0
VERTEX
8
0
10
-1.378543
20
-1.128760
0
VERTEX
8
0
10
-0.003543
20
-1.128760
0
VERTEX
8
0
10
0.071457
20
-1.053760
0
VERTEX
8
0
10
0.071457
20
-0.478760
0
SEQEND
8
0
0
POLYLINE
8
0
66
1
40
0.040000
41
0.040000
0
VERTEX
8
0
10
0.671457
20
0.321240
0
VERTEX
8
0
10
0.671457
20
0.171240
0
VERTEX
8
0
10
0.321457
20
0.171240
0
VERTEX
8
0
10
0.321457
20
-0.028760
0
SEQEND
8
0
0
POLYLINE
8
0
66
1
40
0.040000
41
0.040000
0
VERTEX
8
0
10
0.321457
20
-0.628760
0
VERTEX
8
0
10
0.421457
20
-0.628760
0
VERTEX
8
0
10
0.421457
20
-0.885610
0
VERTEX
8
0
10
0.412795
20
-0.925610
0
SEQEND
8
0
0
POLYLINE
8
0
66
1
40
0.040000
41
0.040000
0
VERTEX
8
0
10
1.307677
20
-0.298689
0
VERTEX
8
0
10
1.021457
20
-0.298689
0
VERTEX
8
0
10
1.021457
20
-0.478760
0
VERTEX
8
0
10
0.212795
20
-0.478760
0
VERTEX
8
0
10
0.212795
20
-0.925610
0
VERTEX
8
0
10
0.212795
20
-1.228760
0
VERTEX
8
0
10
-1.578543
20
-1.228760
0
VERTEX
8
0
10
-1.578543
20
0.171240
0
VERTEX
8
0
10
-1.376339
20
0.171240
0
VERTEX
8
0
10
-1.316339
20
0.201161
0
SEQEND
8
0
0
POLYLINE
8
0
66
1
40
0.040000
41
0.040000
0
VERTEX
8
0
10
-0.878543
20
-0.208760
0
VERTEX
8
0
10
-0.878543
20
-0.328760
0
SEQEND
8
0
0
POLYLINE
8
0
66
1
40
0.040000
41
0.040000
0
VERTEX
8
0
10
-0.678543
20
-0.328760
0
VERTEX
8
0
10
-0.478543
20
-0.328760
0
VERTEX
8
0
10
-0.478543
20
-0.478760
0
SEQEND
8
0
0
POLYLINE
8
0
66
1
40
0.040000
41
0.040000
0
VERTEX
8
0
10
-0.028543
20
-0.478760
0
VERTEX
8
0
10
-0.028543
20
-0.578760
0
VERTEX
8
0
10
-0.426575
20
-0.578760
0
VERTEX
8
0
10
-0.426575
20
-0.874429
0
SEQEND
8
0
0
POLYLINE
8
0
66
1
40
0.040000
41
0.040000
0
VERTEX
8
0
10
-0.428543
20
-0.208760
0
VERTEX
8
0
10
-0.228543
20
-0.208760
0
SEQEND
8
0
0
POLYLINE
8
0
66
1
40
0.040000
41
0.040000
0
VERTEX
8
0
10
-0.228543
20
-0.678760
0
VERTEX
8
0
10
-0.228543
20
-0.814429
0
VERTEX
8
0
10
-0.229575
20
-0.874429
0
SEQEND
8
0
0
POLYLINE
8
0
66
1
40
0.040000
41
0.040000
0
VERTEX
8
0
10
0.221457
20
1.021240
0
VERTEX
8
0
10
0.221457
20
0.921240
0
SEQEND
8
0
0
POLYLINE
8
0
66
1
40
0.040000
41
0.040000
0
VERTEX
8
0
10
-0.428543
20
0.871240
0
VERTEX
8
0
10
-0.428543
20
0.521240
0
VERTEX
8
0
10
-0.528543
20
0.521240
0
VERTEX
8
0
10
-0.528543
20
0.371240
0
SEQEND
8
0
0
POLYLINE
8
0
66
1
40
0.040000
41
0.040000
0
VERTEX
8
0
10
0.221457
20
0.921240
0
VERTEX
8
0
10
-0.428543
20
0.921240
0
VERTEX
8
0
10
-0.428543
20
0.871240
0
SEQEND
8
0
0
POLYLINE
8
0
66
1
40
0.040000
41
0.040000
0
VERTEX
8
0
10
-0.528543
20
0.371240
0
VERTEX
8
0
10
-0.528543
20
0.271240
0
VERTEX
8
0
10
-0.628543
20
0.271240
0
SEQEND
8
0
0
POLYLINE
8
0
66
1
40
0.040000
41
0.040000
0
VERTEX
8
0
10
-0.678543
20
1.171240
0
VERTEX
8
0
10
-0.678543
20
1.271240
0
VERTEX
8
0
10
-1.131543
20
1.271240
0
VERTEX
8
0
10
-1.131543
20
1.121240
0
SEQEND
8
0
0
POLYLINE
8
0
66
1
40
0.040000
41
0.040000
0
VERTEX
8
0
10
0.221457
20
1.171240
0
VERTEX
8
0
10
0.221457
20
1.021240
0
SEQEND
8
0
0
POLYLINE
8
0
66
1
40
0.040000
41
0.040000
0
VERTEX
8
0
10
0.221457
20
1.271240
0
VERTEX
8
0
10
1.021457
20
1.271240
0
VERTEX
8
0
10
1.021457
20
0.021240
0
VERTEX
8
0
10
1.571457
20
0.021240
0
VERTEX
8
0
10
1.571457
20
-1.178760
0
VERTEX
8
0
10
1.268307
20
-1.178760
0
VERTEX
8
0
10
1.268307
20
-1.068130
0
SEQEND
8
0
0
POLYLINE
8
0
66
1
40
0.040000
41
0.040000
0
VERTEX
8
0
10
-0.678543
20
1.271240
0
VERTEX
8
0
10
0.221457
20
1.271240
0
VERTEX
8
0
10
0.221457
20
1.171240
0
SEQEND
8
0
0
POLYLINE
8
0
66
1
40
0.040000
41
0.040000
0
VERTEX
8
0
10
-1.428543
20
-0.478760
0
VERTEX
8
0
10
-1.478543
20
-0.453760
0
VERTEX
8
0
10
-1.478543
20
-0.003760
0
VERTEX
8
0
10
-1.378543
20
0.046240
0
VERTEX
8
0
10
-1.228543
20
0.046240
0
VERTEX
8
0
10
-1.203543
20
0.021240
0
SEQEND
8
0
0
POLYLINE
8
0
66
1
40
0.040000
41
0.040000
0
VERTEX
8
0
10
-0.943898
20
-0.875610
0
VERTEX
8
0
10
-0.865748
20
-0.953760
0
VERTEX
8
0
10
-0.653543
20
-0.953760
0
VERTEX
8
0
10
-0.603543
20
-0.903760
0
VERTEX
8
0
10
-0.603543
20
-0.603760
0
VERTEX
8
0
10
-0.478543
20
-0.478760
0
SEQEND
8
0
0
POLYLINE
8
0
66
1
40
0.040000
41
0.040000
0
VERTEX
8
0
10
-0.943898
20
-0.875610
0
VERTEX
8
0
10
-1.028543
20
-0.790965
0
VERTEX
8
0
10
-1.028543
20
-0.478760
0
SEQEND
8
0
0
POLYLINE
8
0
66
1
40
0.040000
41
0.040000
0
VERTEX
8
0
10
-0.778543
20
-0.678760
0
VERTEX
8
0
10
-0.778543
20
-0.753760
0
VERTEX
8
0
10
-0.843898
20
-0.819114
0
VERTEX
8
0
10
-0.843898
20
-0.875610
0
SEQEND
8
0
0
INSERT
8
0
2
EPAD
10
-0.228543
20
1.021240
41
0.030000
42
0.030000
0
CIRCLE
8
0
10
-0.228543
20
1.021240
40
0.010000
0
INSERT
8
0
2
EPAD
10
-0.228543
20
0.421240
41
0.030000
42
0.030000
0
CIRCLE
8
0
10
-0.228543
20
0.421240
40
0.010000
0
INSERT
8
0
2
EPAD
10
0.321457
20
-0.028760
41
0.030000
42
0.030000
0
CIRCLE
8
0
10
0.321457
20
-0.028760
40
0.010000
0
INSERT
8
0
2
EPAD
10
0.321457
20
-0.628760
41
0.030000
42
0.030000
0
CIRCLE
8
0
10
0.321457
20
-0.628760
40
0.010000
0
INSERT
8
0
2
EPAD
10
-0.878543
20
-0.328760
41
0.030000
42
0.030000
0
CIRCLE
8
0
10
-0.878543
20
-0.328760
40
0.010000
0
INSERT
8
0
2
EPAD
10
-0.678543
20
-0.328760
41
0.030000
42
0.030000
0
CIRCLE
8
0
10
-0.678543
20
-0.328760
40
0.010000
0
INSERT
8
0
2
EPAD
10
-0.228543
20
-0.208760
41
0.030000
42
0.030000
0
CIRCLE
8
0
10
-0.228543
20
-0.208760
40
0.010000
0
INSERT
8
0
2
EPAD
10
-0.228543
20
-0.678760
41
0.030000
42
0.030000
0
CIRCLE
8
0
10
-0.228543
20
-0.678760
40
0.010000
0
INSERT
8
0
2
EPAD
10
-1.328543
20
1.121240
41
0.120000
42
0.120000
0
CIRCLE
8
0
10
-1.328543
20
1.121240
40
0.030000
0
INSERT
8
0
2
EPAD
10
-1.131543
20
1.121240
41
0.120000
42
0.120000
0
CIRCLE
8
0
10
-1.131543
20
1.121240
40
0.030000
0
INSERT
8
0
2
RPAD
10
-1.318701
20
0.843287
41
0.080000
42
0.080000
50
-90.000000
0
CIRCLE
8
0
10
-1.318701
20
0.843287
40
0.025000
0
INSERT
8
0
2
RPAD
10
-1.318701
20
0.743287
41
0.080000
42
0.080000
50
-90.000000
0
CIRCLE
8
0
10
-1.318701
20
0.743287
40
0.025000
0
INSERT
8
0
2
RPAD
10
-1.318701
20
0.643287
41
0.080000
42
0.080000
50
-90.000000
0
CIRCLE
8
0
10
-1.318701
20
0.643287
40
0.025000
0
INSERT
8
0
2
EPAD
10
-1.097441
20
0.644075
41
0.070000
42
0.070000
0
CIRCLE
8
0
10
-1.097441
20
0.644075
40
0.025000
0
INSERT
8
0
2
EPAD
10
-0.797441
20
0.644075
41
0.070000
42
0.070000
0
CIRCLE
8
0
10
-0.797441
20
0.644075
40
0.025000
0
INSERT
8
0
2
EPAD
10
-0.426575
20
-0.874429
41
0.120000
42
0.120000
0
CIRCLE
8
0
10
-0.426575
20
-0.874429
40
0.030000
0
INSERT
8
0
2
EPAD
10
-0.229575
20
-0.874429
41
0.120000
42
0.120000
0
CIRCLE
8
0
10
-0.229575
20
-0.874429
40
0.030000
0
INSERT
8
0
2
EPAD
10
-1.276969
20
-0.193799
41
0.060000
42
0.060000
0
CIRCLE
8
0
10
-1.276968
20
-0.193799
40
0.025000
0
INSERT
8
0
2
EPAD
10
-1.276969
20
-0.113799
41
0.060000
42
0.060000
0
CIRCLE
8
0
10
-1.276968
20
-0.113799
40
0.025000
0
INSERT
8
0
2
EPAD
10
-1.276969
20
-0.033799
41
0.060000
42
0.060000
0
CIRCLE
8
0
10
-1.276968
20
-0.033799
40
0.025000
0
INSERT
8
0
2
EPAD
10
-1.176969
20
-0.925610
41
0.080000
42
0.080000
0
CIRCLE
8
0
10
-1.176968
20
-0.925610
40
0.025000
0
INSERT
8
0
2
EPAD
10
-1.376969
20
-0.925610
41
0.080000
42
0.080000
0
CIRCLE
8
0
10
-1.376969
20
-0.925610
40
0.025000
0
INSERT
8
0
2
EPAD
10
-1.276969
20
-0.925610
41
0.080000
42
0.080000
0
CIRCLE
8
0
10
-1.276968
20
-0.925610
40
0.025000
0
INSERT
8
0
2
EPAD
10
-1.176969
20
-0.689390
41
0.070000
42
0.070000
0
CIRCLE
8
0
10
-1.176968
20
-0.689390
40
0.025000
0
INSERT
8
0
2
EPAD
10
-1.276969
20
-0.689390
41
0.070000
42
0.070000
0
CIRCLE
8
0
10
-1.276968
20
-0.689390
40
0.025000
0
INSERT
8
0
2
EPAD
10
-0.743898
20
-0.875610
41
0.080000
42
0.080000
0
CIRCLE
8
0
10
-0.743898
20
-0.875610
40
0.025000
0
INSERT
8
0
2
EPAD
10
-0.943898
20
-0.875610
41
0.080000
42
0.080000
0
CIRCLE
8
0
10
-0.943898
20
-0.875610
40
0.025000
0
INSERT
8
0
2
EPAD
10
-0.843898
20
-0.875610
41
0.080000
42
0.080000
0
CIRCLE
8
0
10
-0.843898
20
-0.875610
40
0.025000
0
INSERT
8
0
2
RPAD
10
0.212795
20
-0.925610
41
0.080000
42
0.080000
50
0.000000
0
CIRCLE
8
0
10
0.212795
20
-0.925610
40
0.025000
0
INSERT
8
0
2
RPAD
10
0.312795
20
-0.925610
41
0.080000
42
0.080000
50
0.000000
0
CIRCLE
8
0
10
0.312795
20
-0.925610
40
0.025000
0
INSERT
8
0
2
RPAD
10
0.412795
20
-0.925610
41
0.080000
42
0.080000
50
0.000000
0
CIRCLE
8
0
10
0.412795
20
-0.925610
40
0.025000
0
INSERT
8
0
2
EPAD
10
0.795866
20
-0.925610
41
0.120000
42
0.120000
0
CIRCLE
8
0
10
0.795866
20
-0.925610
40
0.030000
0
INSERT
8
0
2
EPAD
10
0.992866
20
-0.925610
41
0.120000
42
0.120000
0
CIRCLE
8
0
10
0.992866
20
-0.925610
40
0.030000
0
INSERT
8
0
2
EPAD
10
1.268307
20
-0.768130
41
0.070000
42
0.070000
0
CIRCLE
8
0
10
1.268307
20
-0.768130
40
0.025000
0
INSERT
8
0
2
EPAD
10
1.268307
20
-1.068130
41
0.070000
42
0.070000
0
CIRCLE
8
0
10
1.268307
20
-1.068130
40
0.025000
0
INSERT
8
0
2
EPAD
10
1.307677
20
-0.298689
41
0.120000
42
0.120000
0
CIRCLE
8
0
10
1.307677
20
-0.298689
40
0.030000
0
INSERT
8
0
2
EPAD
10
1.307677
20
-0.495689
41
0.120000
42
0.120000
0
CIRCLE
8
0
10
1.307677
20
-0.495689
40
0.030000
0
INSERT
8
0
2
EPAD
10
-1.316339
20
0.201161
41
0.120000
42
0.120000
0
CIRCLE
8
0
10
-1.316339
20
0.201161
40
0.030000
0
INSERT
8
0
2
EPAD
10
-1.316339
20
0.398161
41
0.120000
42
0.120000
0
CIRCLE
8
0
10
-1.316339
20
0.398161
40
0.030000
0
INSERT
8
0
2
EPAD
10
-0.878543
20
-0.208760
41
0.060000
42
0.060000
0
CIRCLE
8
0
10
-0.878543
20
-0.208760
40
0.025000
0
INSERT
8
0
2
EPAD
10
-0.878543
20
-0.128760
41
0.060000
42
0.060000
0
CIRCLE
8
0
10
-0.878543
20
-0.128760
40
0.025000
0
INSERT
8
0
2
EPAD
10
-0.878543
20
-0.048760
41
0.060000
42
0.060000
0
CIRCLE
8
0
10
-0.878543
20
-0.048760
40
0.025000
0
INSERT
8
0
2
EPAD
10
-0.428543
20
-0.208760
41
0.060000
42
0.060000
0
CIRCLE
8
0
10
-0.428543
20
-0.208760
40
0.025000
0
INSERT
8
0
2
EPAD
10
-0.428543
20
-0.128760
41
0.060000
42
0.060000
0
CIRCLE
8
0
10
-0.428543
20
-0.128760
40
0.025000
0
INSERT
8
0
2
EPAD
10
-0.428543
20
-0.048760
41
0.060000
42
0.060000
0
CIRCLE
8
0
10
-0.428543
20
-0.048760
40
0.025000
0
INSERT
8
0
2
EPAD
10
-0.028543
20
-0.208760
41
0.060000
42
0.060000
0
CIRCLE
8
0
10
-0.028543
20
-0.208760
40
0.025000
0
INSERT
8
0
2
EPAD
10
-0.028543
20
-0.128760
41
0.060000
42
0.060000
0
CIRCLE
8
0
10
-0.028543
20
-0.128760
40
0.025000
0
INSERT
8
0
2
EPAD
10
-0.028543
20
-0.048760
41
0.060000
42
0.060000
0
CIRCLE
8
0
10
-0.028543
20
-0.048760
40
0.025000
0
INSERT
8
0
2
EPAD
10
-1.028543
20
-0.478760
41
0.070000
42
0.070000
0
CIRCLE
8
0
10
-1.028543
20
-0.478760
40
0.025000
0
INSERT
8
0
2
EPAD
10
-1.428543
20
-0.478760
41
0.070000
42
0.070000
0
CIRCLE
8
0
10
-1.428543
20
-0.478760
40
0.025000
0
INSERT
8
0
2
EPAD
10
-1.028543
20
0.121240
41
0.070000
42
0.070000
0
CIRCLE
8
0
10
-1.028543
20
0.121240
40
0.025000
0
INSERT
8
0
2
EPAD
10
-0.628543
20
0.121240
41
0.070000
42
0.070000
0
CIRCLE
8
0
10
-0.628543
20
0.121240
40
0.025000
0
INSERT
8
0
2
EPAD
10
0.771457
20
0.071240
41
0.070000
42
0.070000
0
CIRCLE
8
0
10
0.771457
20
0.071240
40
0.025000
0
INSERT
8
0
2
EPAD
10
0.771457
20
-0.328760
41
0.070000
42
0.070000
0
CIRCLE
8
0
10
0.771457
20
-0.328760
40
0.025000
0
INSERT
8
0
2
EPAD
10
-0.628543
20
0.271240
41
0.070000
42
0.070000
0
CIRCLE
8
0
10
-0.628543
20
0.271240
40
0.025000
0
INSERT
8
0
2
EPAD
10
-0.228543
20
0.271240
41
0.070000
42
0.070000
0
CIRCLE
8
0
10
-0.228543
20
0.271240
40
0.025000
0
INSERT
8
0
2
EPAD
10
-0.878543
20
-0.478760
41
0.070000
42
0.070000
0
CIRCLE
8
0
10
-0.878543
20
-0.478760
40
0.025000
0
INSERT
8
0
2
EPAD
10
-0.478543
20
-0.478760
41
0.070000
42
0.070000
0
CIRCLE
8
0
10
-0.478543
20
-0.478760
40
0.025000
0
INSERT
8
0
2
EPAD
10
-1.028543
20
0.371240
41
0.070000
42
0.070000
0
CIRCLE
8
0
10
-1.028543
20
0.371240
40
0.025000
0
INSERT
8
0
2
EPAD
10
-0.628543
20
0.371240
41
0.070000
42
0.070000
0
CIRCLE
8
0
10
-0.628543
20
0.371240
40
0.025000
0
INSERT
8
0
2
EPAD
10
1.471457
20
-1.078760
41
0.070000
42
0.070000
0
CIRCLE
8
0
10
1.471457
20
-1.078760
40
0.025000
0
INSERT
8
0
2
EPAD
10
1.471457
20
-0.678760
41
0.070000
42
0.070000
0
CIRCLE
8
0
10
1.471457
20
-0.678760
40
0.025000
0
INSERT
8
0
2
EPAD
10
0.071457
20
0.271240
41
0.070000
42
0.070000
0
CIRCLE
8
0
10
0.071457
20
0.271240
40
0.025000
0
INSERT
8
0
2
EPAD
10
0.471457
20
0.271240
41
0.070000
42
0.070000
0
CIRCLE
8
0
10
0.471457
20
0.271240
40
0.025000
0
INSERT
8
0
2
EPAD
10
0.071457
20
0.771240
41
0.070000
42
0.070000
0
CIRCLE
8
0
10
0.071457
20
0.771240
40
0.025000
0
INSERT
8
0
2
EPAD
10
0.471457
20
0.771240
41
0.070000
42
0.070000
0
CIRCLE
8
0
10
0.471457
20
0.771240
40
0.025000
0
INSERT
8
0
2
EPAD
10
-0.778543
20
1.171240
41
0.070000
42
0.070000
0
CIRCLE
8
0
10
-0.778543
20
1.171240
40
0.025000
0
INSERT
8
0
2
EPAD
10
-0.678543
20
1.171240
41
0.070000
42
0.070000
0
CIRCLE
8
0
10
-0.678543
20
1.171240
40
0.025000
0
INSERT
8
0
2
EPAD
10
-0.778543
20
1.021240
41
0.070000
42
0.070000
0
CIRCLE
8
0
10
-0.778543
20
1.021240
40
0.025000
0
INSERT
8
0
2
EPAD
10
-0.678543
20
1.021240
41
0.070000
42
0.070000
0
CIRCLE
8
0
10
-0.678543
20
1.021240
40
0.025000
0
INSERT
8
0
2
EPAD
10
-0.878543
20
-0.678760
41
0.070000
42
0.070000
0
CIRCLE
8
0
10
-0.878543
20
-0.678760
40
0.025000
0
INSERT
8
0
2
EPAD
10
-0.778543
20
-0.678760
41
0.070000
42
0.070000
0
CIRCLE
8
0
10
-0.778543
20
-0.678760
40
0.025000
0
INSERT
8
0
2
EPAD
10
-0.628543
20
0.621240
41
0.070000
42
0.070000
0
CIRCLE
8
0
10
-0.628543
20
0.621240
40
0.025000
0
INSERT
8
0
2
EPAD
10
-0.528543
20
0.621240
41
0.070000
42
0.070000
0
CIRCLE
8
0
10
-0.528543
20
0.621240
40
0.025000
0
INSERT
8
0
2
EPAD
10
0.671457
20
0.421240
41
0.070000
42
0.070000
0
CIRCLE
8
0
10
0.671457
20
0.421240
40
0.025000
0
INSERT
8
0
2
EPAD
10
0.671457
20
0.321240
41
0.070000
42
0.070000
0
CIRCLE
8
0
10
0.671457
20
0.321240
40
0.025000
0
INSERT
8
0
2
EPAD
10
0.471457
20
1.121240
41
0.070000
42
0.070000
0
CIRCLE
8
0
10
0.471457
20
1.121240
40
0.025000
0
INSERT
8
0
2
EPAD
10
0.071457
20
1.121240
41
0.070000
42
0.070000
0
CIRCLE
8
0
10
0.071457
20
1.121240
40
0.025000
0
INSERT
8
0
2
EPAD
10
-0.078543
20
1.121240
41
0.070000
42
0.070000
0
CIRCLE
8
0
10
-0.078543
20
1.121240
40
0.025000
0
INSERT
8
0
2
EPAD
10
-0.478543
20
1.121240
41
0.070000
42
0.070000
0
CIRCLE
8
0
10
-0.478543
20
1.121240
40
0.025000
0
INSERT
8
0
2
EPAD
10
-0.028543
20
-0.478760
41
0.070000
42
0.070000
0
CIRCLE
8
0
10
-0.028543
20
-0.478760
40
0.025000
0
INSERT
8
0
2
EPAD
10
0.071457
20
-0.478760
41
0.070000
42
0.070000
0
CIRCLE
8
0
10
0.071457
20
-0.478760
40
0.025000
0
ENDSEC
0
EOF

